<svg width="26" height="25" viewBox="0 0 26 25" fill="none" xmlns="http://www.w3.org/2000/svg">
<g opacity="0.6" filter="url(#filter0_d_0_10)">
<path fill-rule="evenodd" clip-rule="evenodd" d="M6.18381 0C4.86356 0 4 0.855911 4 1.98146C4 3.08249 4.83857 3.96437 6.13259 3.96437H6.15837C7.50419 3.96437 8.34117 3.08265 8.34117 1.98146C8.31581 0.855911 7.50419 0 6.18381 0ZM22 10.4227V17H18.142V10.8632C18.142 9.32158 17.584 8.26949 16.1875 8.26949C15.1215 8.26949 14.4871 8.97852 14.208 9.66439C14.1063 9.90959 14.0801 10.2509 14.0801 10.5941V17H10.2208C10.2208 17 10.2728 6.60627 10.2208 5.5294H14.0797V7.15531C14.076 7.16105 14.0718 7.16701 14.0676 7.17293L14.0676 7.17295C14.0629 7.17957 14.0582 7.18615 14.0543 7.19237H14.0797V7.15531C14.5924 6.37485 15.508 5.25992 17.5574 5.25992C20.0965 5.25988 22 6.89936 22 10.4227ZM8.08702 17H4.22921V5.5294H8.08702V17Z" fill="#2B292D"/>
</g>
<defs>
<filter id="filter0_d_0_10" x="0" y="0" width="26" height="25" filterUnits="userSpaceOnUse" color-interpolation-filters="sRGB">
<feFlood flood-opacity="0" result="BackgroundImageFix"/>
<feColorMatrix in="SourceAlpha" type="matrix" values="0 0 0 0 0 0 0 0 0 0 0 0 0 0 0 0 0 0 127 0" result="hardAlpha"/>
<feOffset dy="4"/>
<feGaussianBlur stdDeviation="2"/>
<feComposite in2="hardAlpha" operator="out"/>
<feColorMatrix type="matrix" values="0 0 0 0 0 0 0 0 0 0 0 0 0 0 0 0 0 0 0.25 0"/>
<feBlend mode="normal" in2="BackgroundImageFix" result="effect1_dropShadow_0_10"/>
<feBlend mode="normal" in="SourceGraphic" in2="effect1_dropShadow_0_10" result="shape"/>
</filter>
</defs>
</svg>
